<?xml version="1.0" encoding="UTF-8" standalone="no"?>
<!-- Created with Inkscape (http://www.inkscape.org/) -->

<svg
   xmlns:dc="http://purl.org/dc/elements/1.1/"
   xmlns:cc="http://creativecommons.org/ns#"
   xmlns:rdf="http://www.w3.org/1999/02/22-rdf-syntax-ns#"
   xmlns:svg="http://www.w3.org/2000/svg"
   xmlns="http://www.w3.org/2000/svg"
   xmlns:sodipodi="http://sodipodi.sourceforge.net/DTD/sodipodi-0.dtd"
   xmlns:inkscape="http://www.inkscape.org/namespaces/inkscape"
   width="210mm"
   height="297mm"
   viewBox="0 0 210 297"
   version="1.1"
   id="svg4136"
   inkscape:version="0.92.4 (5da689c313, 2019-01-14)"
   sodipodi:docname="termos.svg"
   inkscape:export-filename="/Users/analauragomezlujan/Desktop/Anita Design/Finales png/termos.png"
   inkscape:export-xdpi="300"
   inkscape:export-ydpi="300">
  <defs
     id="defs4130" />
  <sodipodi:namedview
     id="base"
     pagecolor="#ffffff"
     bordercolor="#666666"
     borderopacity="1.0"
     inkscape:pageopacity="0.0"
     inkscape:pageshadow="2"
     inkscape:zoom="0.49497475"
     inkscape:cx="-308.47888"
     inkscape:cy="619.98332"
     inkscape:document-units="mm"
     inkscape:current-layer="layer1"
     showgrid="false"
     inkscape:window-width="1280"
     inkscape:window-height="755"
     inkscape:window-x="0"
     inkscape:window-y="0"
     inkscape:window-maximized="1" />
  <metadata
     id="metadata4133">
    <rdf:RDF>
      <cc:Work
         rdf:about="">
        <dc:format>image/svg+xml</dc:format>
        <dc:type
           rdf:resource="http://purl.org/dc/dcmitype/StillImage" />
        <dc:title></dc:title>
      </cc:Work>
    </rdf:RDF>
  </metadata>
  <g
     inkscape:label="Capa 1"
     inkscape:groupmode="layer"
     id="layer1">
    <g
       id="g5473"
       transform="rotate(91.574488,-24.455215,257.30081)">
      <g
         transform="matrix(1.0384661,0.16002769,-0.15076286,1.1022829,29.928955,10.806719)"
         id="g5041">
        <path
           style="fill:none;stroke:#000000;stroke-width:3;stroke-linecap:butt;stroke-linejoin:miter;stroke-miterlimit:4;stroke-dasharray:none;stroke-opacity:1"
           d="m -204.20791,198.65975 c 13.47641,-1.01013 27.25177,-2.44589 41.42678,-6.94901 3.21082,-1.67201 5.90283,-3.278 5.61266,-7.75081 l -5.87993,-99.156969 c -21.6712,3.82289 -46.48259,7.20705 -74.5682,13.096191 l 25.75731,95.378078 c 1.65811,4.91739 4.59062,5.3744 7.65138,5.38252 z"
           id="path5029"
           inkscape:connector-curvature="0"
           sodipodi:nodetypes="ccccccc" />
        <path
           style="fill:#000000;fill-opacity:1;stroke:#000000;stroke-width:1.56500006;stroke-linecap:round;stroke-linejoin:round;stroke-miterlimit:4;stroke-dasharray:none;stroke-opacity:1"
           d="m -241.07711,99.482446 81.78447,-12.294399 c -0.3422,-2.457047 0.90213,-5.707362 -1.33634,-7.216277 -2.42868,0.512858 -2.09398,-0.632321 -2.93997,-1.069078 l -2.63144,-5.6404 c -0.63764,-2.038262 -1.59184,-2.177173 -2.58031,-2.110414 -9.33016,-1.554284 -42.09023,4.795245 -67.86833,9.699717 -1.62738,0.309622 -2.44151,2.357777 -2.28992,2.59468 l -1e-5,6.147197 c -0.35174,0.775193 -0.0319,1.998074 -1.33634,2.138159 l -1.87089,0.534538 c -1.14818,3.909962 1.06908,7.216277 1.06908,7.216277 z"
           id="path5031"
           inkscape:connector-curvature="0"
           sodipodi:nodetypes="ccccccsccccc" />
        <path
           style="fill:#ffffff;fill-opacity:1;stroke:#ffffff;stroke-width:0.26458332px;stroke-linecap:butt;stroke-linejoin:miter;stroke-opacity:1"
           d="m -235.59809,91.068828 66.55011,-10.958052 c -1.42495,-1.506402 -27.01552,3.252354 -41.29313,5.078122 -0.30503,-2.394205 -0.35234,-4.770637 4.40994,-6.815373 4.81717,-1.893631 11.10508,-3.156947 17.10525,-4.543581 l -39.28862,6.013563 c -1.42052,0.476362 -2.27531,1.306307 -2.27179,2.672697 l -0.40091,6.681737 c -1.58314,0.638076 -5.44653,1.391299 -4.81085,1.870887 z"
           id="path5033"
           inkscape:connector-curvature="0"
           sodipodi:nodetypes="ccccccccc" />
        <path
           style="fill:#ffffff;fill-opacity:1;stroke:#ffffff;stroke-width:0.26458332px;stroke-linecap:butt;stroke-linejoin:miter;stroke-opacity:1"
           d="m -235.00669,93.270831 4.2286,-0.519718 0.11812,1.842634 c -0.0372,0.803419 -0.63915,1.104765 -1.22842,1.417413 l -1.46466,0.519716 -0.33073,0.425225 66.42932,-10.394347 c 0.92317,-1.408411 -26.14812,3.035127 -39.59301,4.630209 -2.04211,-0.06058 -3.10774,-0.571838 -2.83482,-1.700893 l 26.26934,-4.724701 c -12.99304,0.425697 -33.45089,4.976685 -50.17633,7.465028 -1.00766,0.16808 -1.12729,0.632172 -1.41741,1.039434 z"
           id="path5035"
           inkscape:connector-curvature="0"
           sodipodi:nodetypes="cccccccccccc" />
      </g>
      <g
         inkscape:label="Capa 1"
         id="layer1-8"
         transform="matrix(0.16772131,0,0,0.16772131,-199.54111,139.72793)">
        <g
           id="g1107"
           transform="translate(32.65535,-0.41392856)" />
        <g
           id="g5446">
          <g
             transform="matrix(1.0548458,0,0,1.0548458,-149.07205,52.763121)"
             id="g1135">
            <path
               transform="translate(32.655351,-0.41392856)"
               sodipodi:nodetypes="ccc"
               inkscape:connector-curvature="0"
               id="path1082"
               d="m 71.815475,234.25595 c -30.267578,-2.43644 -33.871661,-14.34617 -42.287476,-25.92379 18.742045,-0.77926 35.776184,6.11123 42.287476,25.92379 z"
               style="fill:none;stroke:#000000;stroke-width:1.89999998;stroke-linecap:butt;stroke-linejoin:miter;stroke-miterlimit:4;stroke-dasharray:none;stroke-opacity:1" />
            <path
               transform="translate(32.655351,-0.41392856)"
               style="fill:none;stroke:#000000;stroke-width:1.89999998;stroke-linecap:butt;stroke-linejoin:miter;stroke-miterlimit:4;stroke-dasharray:none;stroke-opacity:1"
               d="M 71.286308,233.72678 C 43.123204,217.91867 45.92135,206.03353 45.303436,190.23306 c 17.012253,5.07741 30.52153,19.48304 25.982872,43.49372 z"
               id="path1084"
               inkscape:connector-curvature="0"
               sodipodi:nodetypes="ccc" />
            <path
               transform="translate(32.655351,-0.41392856)"
               style="fill:none;stroke:#000000;stroke-width:1.89999998;stroke-linecap:butt;stroke-linejoin:miter;stroke-miterlimit:4;stroke-dasharray:none;stroke-opacity:1"
               d="M 72.873809,234.25595 C 103.1414,231.81951 106.74548,219.90978 115.1613,208.33216 96.419242,207.5529 79.385109,214.44339 72.873809,234.25595 Z"
               id="path1086"
               inkscape:connector-curvature="0"
               sodipodi:nodetypes="ccc" />
            <path
               transform="translate(32.655351,-0.41392856)"
               sodipodi:nodetypes="ccc"
               inkscape:connector-curvature="0"
               id="path1088"
               d="M 72.873809,233.19761 C 101.03692,217.3895 98.238772,205.50436 98.856682,189.70389 81.844429,194.7813 68.335159,209.18693 72.873809,233.19761 Z"
               style="fill:none;stroke:#000000;stroke-width:1.89999998;stroke-linecap:butt;stroke-linejoin:miter;stroke-miterlimit:4;stroke-dasharray:none;stroke-opacity:1" />
            <path
               transform="translate(32.655351,-0.41392856)"
               sodipodi:nodetypes="ccc"
               inkscape:connector-curvature="0"
               id="path1090"
               d="m 71.815475,233.19761 c -18.029619,-29.89896 -6.365033,-42.08589 0.09883,-51.19339 11.696599,11.46233 15.653557,32.07759 -0.09883,51.19339 z"
               style="fill:none;stroke:#000000;stroke-width:1.89999998;stroke-linecap:butt;stroke-linejoin:miter;stroke-miterlimit:4;stroke-dasharray:none;stroke-opacity:1" />
            <g
               id="g1116"
               transform="translate(32.612251)">
              <circle
                 r="1.4699824"
                 cy="238.87425"
                 cx="72.387749"
                 id="path1092"
                 style="opacity:1;fill:#000000;fill-opacity:1;stroke:#000000;stroke-width:1.89999998;stroke-linecap:square;stroke-linejoin:miter;stroke-miterlimit:4;stroke-dasharray:none;stroke-opacity:1;paint-order:normal" />
              <circle
                 style="opacity:1;fill:#000000;fill-opacity:1;stroke:#000000;stroke-width:1.89999998;stroke-linecap:square;stroke-linejoin:miter;stroke-miterlimit:4;stroke-dasharray:none;stroke-opacity:1;paint-order:normal"
                 id="circle1094"
                 cx="72.387749"
                 cy="245.55598"
                 r="1.4699824" />
            </g>
            <g
               id="g1112"
               transform="translate(33.141426)">
              <circle
                 style="opacity:1;fill:#000000;fill-opacity:1;stroke:#000000;stroke-width:1.89999998;stroke-linecap:square;stroke-linejoin:miter;stroke-miterlimit:4;stroke-dasharray:none;stroke-opacity:1;paint-order:normal"
                 id="circle1096"
                 cx="71.858574"
                 cy="169.64604"
                 r="1.4699824" />
              <circle
                 r="1.4699824"
                 cy="176.06052"
                 cx="71.858574"
                 id="circle1098"
                 style="opacity:1;fill:#000000;fill-opacity:1;stroke:#000000;stroke-width:1.89999998;stroke-linecap:square;stroke-linejoin:miter;stroke-miterlimit:4;stroke-dasharray:none;stroke-opacity:1;paint-order:normal" />
              <circle
                 r="1.4699824"
                 cy="163.23158"
                 cx="71.858574"
                 id="circle1100"
                 style="opacity:1;fill:#000000;fill-opacity:1;stroke:#000000;stroke-width:1.89999998;stroke-linecap:square;stroke-linejoin:miter;stroke-miterlimit:4;stroke-dasharray:none;stroke-opacity:1;paint-order:normal" />
            </g>
          </g>
          <flowRoot
             transform="matrix(0.26458333,0,0,0.26458333,-5.8633405,8.9761914)"
             style="font-style:normal;font-variant:normal;font-weight:normal;font-stretch:normal;font-size:40px;line-height:1.25;font-family:Skia;-inkscape-font-specification:Skia;letter-spacing:0px;word-spacing:0px;fill:#000000;fill-opacity:1;stroke:none"
             id="flowRoot1137"
             xml:space="preserve"><flowRegion
               style="font-style:normal;font-variant:normal;font-weight:normal;font-stretch:normal;font-family:Skia;-inkscape-font-specification:Skia"
               id="flowRegion1139"><rect
                 style="font-style:normal;font-variant:normal;font-weight:normal;font-stretch:normal;font-family:Skia;-inkscape-font-specification:Skia"
                 y="956.85468"
                 x="79.802048"
                 height="829.71735"
                 width="1642.7573"
                 id="rect1141" /></flowRegion><flowPara
               id="flowPara1143"
               style="font-size:103.34603882px">ANITA DESIGN</flowPara></flowRoot>        </g>
      </g>
    </g>
    <g
       transform="rotate(91.574488,-81.935023,315.31279)"
       id="g5525"
       inkscape:export-filename="/Users/analauragomezlujan/Desktop/Anita Design/Finales png/termos.png"
       inkscape:export-xdpi="300"
       inkscape:export-ydpi="300">
      <g
         id="g5483"
         transform="matrix(1.0384661,0.16002769,-0.15076286,1.1022829,29.928955,10.806719)">
        <path
           sodipodi:nodetypes="ccccccc"
           inkscape:connector-curvature="0"
           id="path5475"
           d="m -204.20791,198.65975 c 13.47641,-1.01013 27.25177,-2.44589 41.42678,-6.94901 3.21082,-1.67201 5.90283,-3.278 5.61266,-7.75081 l -5.87993,-99.156969 c -21.6712,3.82289 -46.48259,7.20705 -74.5682,13.096191 l 25.75731,95.378078 c 1.65811,4.91739 4.59062,5.3744 7.65138,5.38252 z"
           style="fill:none;stroke:#000000;stroke-width:3;stroke-linecap:butt;stroke-linejoin:miter;stroke-miterlimit:4;stroke-dasharray:none;stroke-opacity:1" />
        <path
           sodipodi:nodetypes="ccccccsccccc"
           inkscape:connector-curvature="0"
           id="path5477"
           d="m -241.07711,99.482446 81.78447,-12.294399 c -0.3422,-2.457047 0.90213,-5.707362 -1.33634,-7.216277 -2.42868,0.512858 -2.09398,-0.632321 -2.93997,-1.069078 l -2.63144,-5.6404 c -0.63764,-2.038262 -1.59184,-2.177173 -2.58031,-2.110414 -9.33016,-1.554284 -42.09023,4.795245 -67.86833,9.699717 -1.62738,0.309622 -2.44151,2.357777 -2.28992,2.59468 l -1e-5,6.147197 c -0.35174,0.775193 -0.0319,1.998074 -1.33634,2.138159 l -1.87089,0.534538 c -1.14818,3.909962 1.06908,7.216277 1.06908,7.216277 z"
           style="fill:#000000;fill-opacity:1;stroke:#000000;stroke-width:1.56500006;stroke-linecap:round;stroke-linejoin:round;stroke-miterlimit:4;stroke-dasharray:none;stroke-opacity:1" />
        <path
           sodipodi:nodetypes="ccccccccc"
           inkscape:connector-curvature="0"
           id="path5479"
           d="m -235.59809,91.068828 66.55011,-10.958052 c -1.42495,-1.506402 -27.01552,3.252354 -41.29313,5.078122 -0.30503,-2.394205 -0.35234,-4.770637 4.40994,-6.815373 4.81717,-1.893631 11.10508,-3.156947 17.10525,-4.543581 l -39.28862,6.013563 c -1.42052,0.476362 -2.27531,1.306307 -2.27179,2.672697 l -0.40091,6.681737 c -1.58314,0.638076 -5.44653,1.391299 -4.81085,1.870887 z"
           style="fill:#ffffff;fill-opacity:1;stroke:#ffffff;stroke-width:0.26458332px;stroke-linecap:butt;stroke-linejoin:miter;stroke-opacity:1" />
        <path
           sodipodi:nodetypes="cccccccccccc"
           inkscape:connector-curvature="0"
           id="path5481"
           d="m -235.00669,93.270831 4.2286,-0.519718 0.11812,1.842634 c -0.0372,0.803419 -0.63915,1.104765 -1.22842,1.417413 l -1.46466,0.519716 -0.33073,0.425225 66.42932,-10.394347 c 0.92317,-1.408411 -26.14812,3.035127 -39.59301,4.630209 -2.04211,-0.06058 -3.10774,-0.571838 -2.83482,-1.700893 l 26.26934,-4.724701 c -12.99304,0.425697 -33.45089,4.976685 -50.17633,7.465028 -1.00766,0.16808 -1.12729,0.632172 -1.41741,1.039434 z"
           style="fill:#ffffff;fill-opacity:1;stroke:#ffffff;stroke-width:0.26458332px;stroke-linecap:butt;stroke-linejoin:miter;stroke-opacity:1" />
      </g>
      <g
         transform="matrix(0.16772131,0,0,0.16772131,-199.54111,139.72793)"
         id="g5523"
         inkscape:label="Capa 1">
        <g
           transform="translate(32.65535,-0.41392856)"
           id="g5485" />
        <g
           id="g5521">
          <g
             id="g5511"
             transform="matrix(1.0548458,0,0,1.0548458,-149.07205,52.763121)">
            <path
               style="fill:none;stroke:#000000;stroke-width:1.89999998;stroke-linecap:butt;stroke-linejoin:miter;stroke-miterlimit:4;stroke-dasharray:none;stroke-opacity:1"
               d="m 71.815475,234.25595 c -30.267578,-2.43644 -33.871661,-14.34617 -42.287476,-25.92379 18.742045,-0.77926 35.776184,6.11123 42.287476,25.92379 z"
               id="path5487"
               inkscape:connector-curvature="0"
               sodipodi:nodetypes="ccc"
               transform="translate(32.655351,-0.41392856)" />
            <path
               sodipodi:nodetypes="ccc"
               inkscape:connector-curvature="0"
               id="path5489"
               d="M 71.286308,233.72678 C 43.123204,217.91867 45.92135,206.03353 45.303436,190.23306 c 17.012253,5.07741 30.52153,19.48304 25.982872,43.49372 z"
               style="fill:none;stroke:#000000;stroke-width:1.89999998;stroke-linecap:butt;stroke-linejoin:miter;stroke-miterlimit:4;stroke-dasharray:none;stroke-opacity:1"
               transform="translate(32.655351,-0.41392856)" />
            <path
               sodipodi:nodetypes="ccc"
               inkscape:connector-curvature="0"
               id="path5491"
               d="M 72.873809,234.25595 C 103.1414,231.81951 106.74548,219.90978 115.1613,208.33216 96.419242,207.5529 79.385109,214.44339 72.873809,234.25595 Z"
               style="fill:none;stroke:#000000;stroke-width:1.89999998;stroke-linecap:butt;stroke-linejoin:miter;stroke-miterlimit:4;stroke-dasharray:none;stroke-opacity:1"
               transform="translate(32.655351,-0.41392856)" />
            <path
               style="fill:none;stroke:#000000;stroke-width:1.89999998;stroke-linecap:butt;stroke-linejoin:miter;stroke-miterlimit:4;stroke-dasharray:none;stroke-opacity:1"
               d="M 72.873809,233.19761 C 101.03692,217.3895 98.238772,205.50436 98.856682,189.70389 81.844429,194.7813 68.335159,209.18693 72.873809,233.19761 Z"
               id="path5493"
               inkscape:connector-curvature="0"
               sodipodi:nodetypes="ccc"
               transform="translate(32.655351,-0.41392856)" />
            <path
               style="fill:none;stroke:#000000;stroke-width:1.89999998;stroke-linecap:butt;stroke-linejoin:miter;stroke-miterlimit:4;stroke-dasharray:none;stroke-opacity:1"
               d="m 71.815475,233.19761 c -18.029619,-29.89896 -6.365033,-42.08589 0.09883,-51.19339 11.696599,11.46233 15.653557,32.07759 -0.09883,51.19339 z"
               id="path5495"
               inkscape:connector-curvature="0"
               sodipodi:nodetypes="ccc"
               transform="translate(32.655351,-0.41392856)" />
            <g
               transform="translate(32.612251)"
               id="g5501">
              <circle
                 style="opacity:1;fill:#000000;fill-opacity:1;stroke:#000000;stroke-width:1.89999998;stroke-linecap:square;stroke-linejoin:miter;stroke-miterlimit:4;stroke-dasharray:none;stroke-opacity:1;paint-order:normal"
                 id="circle5497"
                 cx="72.387749"
                 cy="238.87425"
                 r="1.4699824" />
              <circle
                 r="1.4699824"
                 cy="245.55598"
                 cx="72.387749"
                 id="circle5499"
                 style="opacity:1;fill:#000000;fill-opacity:1;stroke:#000000;stroke-width:1.89999998;stroke-linecap:square;stroke-linejoin:miter;stroke-miterlimit:4;stroke-dasharray:none;stroke-opacity:1;paint-order:normal" />
            </g>
            <g
               transform="translate(33.141426)"
               id="g5509">
              <circle
                 r="1.4699824"
                 cy="169.64604"
                 cx="71.858574"
                 id="circle5503"
                 style="opacity:1;fill:#000000;fill-opacity:1;stroke:#000000;stroke-width:1.89999998;stroke-linecap:square;stroke-linejoin:miter;stroke-miterlimit:4;stroke-dasharray:none;stroke-opacity:1;paint-order:normal" />
              <circle
                 style="opacity:1;fill:#000000;fill-opacity:1;stroke:#000000;stroke-width:1.89999998;stroke-linecap:square;stroke-linejoin:miter;stroke-miterlimit:4;stroke-dasharray:none;stroke-opacity:1;paint-order:normal"
                 id="circle5505"
                 cx="71.858574"
                 cy="176.06052"
                 r="1.4699824" />
              <circle
                 style="opacity:1;fill:#000000;fill-opacity:1;stroke:#000000;stroke-width:1.89999998;stroke-linecap:square;stroke-linejoin:miter;stroke-miterlimit:4;stroke-dasharray:none;stroke-opacity:1;paint-order:normal"
                 id="circle5507"
                 cx="71.858574"
                 cy="163.23158"
                 r="1.4699824" />
            </g>
          </g>
          <flowRoot
             xml:space="preserve"
             id="flowRoot5519"
             style="font-style:normal;font-variant:normal;font-weight:normal;font-stretch:normal;font-size:40px;line-height:1.25;font-family:Skia;-inkscape-font-specification:Skia;letter-spacing:0px;word-spacing:0px;fill:#000000;fill-opacity:1;stroke:none"
             transform="matrix(0.26458333,0,0,0.26458333,-5.8633405,8.9761914)"><flowRegion
               id="flowRegion5515"
               style="font-style:normal;font-variant:normal;font-weight:normal;font-stretch:normal;font-family:Skia;-inkscape-font-specification:Skia"><rect
                 id="rect5513"
                 width="1642.7573"
                 height="829.71735"
                 x="79.802048"
                 y="956.85468"
                 style="font-style:normal;font-variant:normal;font-weight:normal;font-stretch:normal;font-family:Skia;-inkscape-font-specification:Skia" /></flowRegion><flowPara
               style="font-size:103.34603882px"
               id="flowPara5517">ANITA DESIGN</flowPara></flowRoot>        </g>
      </g>
    </g>
  </g>
</svg>
